<svg width="20" height="20" viewBox="0 0 20 20" fill="none" xmlns="http://www.w3.org/2000/svg">
<g clip-path="url(#clip0_2_307)">
<path d="M14.0419 0H5.95811C2.67279 0 0 2.67279 0 5.95811V14.0419C0 17.3272 2.67279 20 5.95811 20H14.0419C17.3272 20 20 17.3272 20 14.0419V5.95811C20 2.67279 17.3272 0 14.0419 0ZM17.988 14.0419C17.988 16.2213 16.2213 17.988 14.0419 17.988H5.95811C3.77875 17.988 2.012 16.2213 2.012 14.0419V5.95811C2.012 3.77871 3.77875 2.012 5.95811 2.012H14.0419C16.2213 2.012 17.988 3.77871 17.988 5.95811V14.0419Z" fill="#95E82C"/>
<path d="M9.99998 4.82739C7.14774 4.82739 4.82727 7.14787 4.82727 10.0001C4.82727 12.8523 7.14774 15.1728 9.99998 15.1728C12.8522 15.1728 15.1727 12.8523 15.1727 10.0001C15.1727 7.14783 12.8522 4.82739 9.99998 4.82739ZM9.99998 13.1608C8.25435 13.1608 6.83927 11.7457 6.83927 10.0001C6.83927 8.25448 8.25439 6.83939 9.99998 6.83939C11.7456 6.83939 13.1607 8.25448 13.1607 10.0001C13.1607 11.7457 11.7456 13.1608 9.99998 13.1608Z" fill="#95E82C"/>
<path d="M15.1827 6.10569C15.8673 6.10569 16.4222 5.55075 16.4222 4.8662C16.4222 4.18165 15.8673 3.62671 15.1827 3.62671C14.4982 3.62671 13.9432 4.18165 13.9432 4.8662C13.9432 5.55075 14.4982 6.10569 15.1827 6.10569Z" fill="#95E82C"/>
</g>
<defs>
<clipPath id="clip0_2_307">
<rect width="20" height="20" fill="white"/>
</clipPath>
</defs>
</svg>
