<svg width="110" height="125" viewBox="0 0 110 125" fill="none" xmlns="http://www.w3.org/2000/svg">
<path fill-rule="evenodd" clip-rule="evenodd" d="M83.9667 13.4871H83.6693V7.28896C83.6693 5.63506 82.3293 4.29423 80.6779 4.29423C79.0266 4.29423 77.6866 5.63506 77.6866 7.28896V2.99438C77.6866 1.34049 76.3466 0 74.6952 0C73.0403 0 71.7004 1.34049 71.7004 2.99438C71.7004 1.34049 70.3639 0 68.709 0C67.0576 0 65.7176 1.34049 65.7176 2.99438V14.142H64.4616C64.6155 14.3041 64.766 14.4687 64.9059 14.6403C65.1229 14.9018 65.3293 15.1725 65.5077 15.4733C65.2068 15.2961 64.9339 15.0892 64.675 14.8735C64.4126 14.6564 64.1642 14.4277 63.9263 14.1885L63.9183 14.1799C63.9069 14.1674 63.895 14.1544 63.8808 14.142H63.37C63.356 14.1574 63.342 14.1735 63.3245 14.1885C63.0971 14.4182 62.8592 14.6375 62.6073 14.8469C62.7647 15.0451 62.9117 15.251 63.0411 15.4733C62.8102 15.3375 62.5968 15.1837 62.3939 15.0223C62.1875 15.1837 61.9776 15.3375 61.7466 15.4733C61.8761 15.251 62.0231 15.0451 62.1805 14.8469C61.9286 14.6375 61.6907 14.4182 61.4633 14.1885C61.4458 14.1735 61.4317 14.1574 61.4178 14.142H60.907C60.8928 14.1544 60.8809 14.1674 60.8695 14.1799L60.8615 14.1885C60.6341 14.4182 60.3927 14.6375 60.1443 14.8469C60.2982 15.0451 60.4451 15.251 60.5781 15.4733C60.3472 15.3375 60.1338 15.1837 59.9273 15.0223C59.7244 15.1837 59.511 15.3375 59.2801 15.4733C59.413 15.251 59.56 15.0451 59.7139 14.8469C59.4655 14.6375 59.2276 14.4182 58.9967 14.1885C58.9883 14.1795 58.9799 14.1701 58.9715 14.1606L58.9547 14.142H58.4404L58.4351 14.1478C58.4228 14.1614 58.4102 14.1754 58.3949 14.1885C58.1675 14.4182 57.9296 14.6375 57.6777 14.8469C57.8351 15.0451 57.9821 15.251 58.1115 15.4733C57.8806 15.3375 57.6707 15.1837 57.4643 15.0223C57.2578 15.1837 57.0479 15.3375 56.817 15.4733C56.9465 15.251 57.0969 15.0451 57.2508 14.8469C56.9989 14.6375 56.761 14.4182 56.5336 14.1885C56.5183 14.1754 56.5057 14.1614 56.4934 14.1478L56.4881 14.142H55.9773C55.9631 14.1544 55.9513 14.1674 55.9398 14.1799L55.9318 14.1885C55.7044 14.4182 55.463 14.6375 55.2146 14.8469C55.3686 15.0451 55.5155 15.251 55.6485 15.4733C55.4175 15.3375 55.2041 15.1837 55.0012 15.0223C54.7948 15.1837 54.5813 15.3375 54.3504 15.4733C54.4834 15.251 54.6303 15.0451 54.7843 14.8469C54.5359 14.6375 54.298 14.4182 54.0671 14.1885L54.0529 14.173L54.0419 14.1607L54.0251 14.142H53.5108C53.4968 14.1574 53.4828 14.1735 53.4688 14.1885C53.2379 14.4182 53 14.6375 52.7481 14.8469C52.9055 15.0451 53.0524 15.251 53.1819 15.4733C52.9545 15.3375 52.7411 15.1837 52.5346 15.0223C52.3317 15.1837 52.1183 15.3375 51.8874 15.4733C52.0168 15.251 52.1673 15.0451 52.3212 14.8469C52.0728 14.6375 51.8314 14.4182 51.604 14.1885C51.59 14.1735 51.5725 14.1574 51.5585 14.142H51.0477C51.0392 14.1495 51.0323 14.1572 51.0254 14.1649C51.0183 14.1728 51.0112 14.1809 51.0022 14.1885C50.7748 14.4182 50.5334 14.6375 50.285 14.8469C50.4389 15.0451 50.5859 15.251 50.7188 15.4733C50.4879 15.3375 50.2745 15.1837 50.0716 15.0223C49.8651 15.1837 49.6517 15.3375 49.4243 15.4733C49.5538 15.251 49.7007 15.0451 49.8546 14.8469C49.6062 14.6375 49.3683 14.4182 49.1374 14.1885C49.1291 14.1796 49.1207 14.1702 49.1124 14.1608L49.0955 14.142H48.5811L48.5644 14.1606L48.555 14.1711L48.5392 14.1885C48.3082 14.4182 48.0703 14.6375 47.8219 14.8469C47.9759 15.0451 48.1228 15.251 48.2523 15.4733C48.0248 15.3375 47.8114 15.1837 47.605 15.0223C47.4021 15.1837 47.1887 15.3375 46.9577 15.4733C47.0907 15.251 47.2377 15.0451 47.3916 14.8469C47.1432 14.6375 46.9053 14.4182 46.6744 14.1885L46.6664 14.1799C46.6549 14.1674 46.6431 14.1544 46.6289 14.142H46.1181L46.1128 14.1478C46.1005 14.1614 46.0879 14.1754 46.0726 14.1885C45.8347 14.4277 45.5863 14.6564 45.3239 14.8735C45.065 15.0892 44.7956 15.2961 44.4947 15.4733C44.6696 15.1725 44.876 14.9018 45.093 14.6403C45.2364 14.4687 45.3869 14.3041 45.5373 14.142H44.2813V2.99438C44.2813 1.34049 42.9413 0 41.2899 0C39.6385 0 38.2985 1.34049 38.2985 2.99438C38.2985 1.34049 36.9585 0 35.3072 0C33.6523 0 32.3123 1.34049 32.3123 2.99438V7.28896C32.3123 5.63506 30.9758 4.29423 29.3244 4.29423H29.321C27.6696 4.29423 26.3296 5.63506 26.3296 7.28896V13.4871H26.0322C25.224 13.4871 24.5662 14.1434 24.5662 14.9526V18.7534C24.5662 19.5627 25.224 20.2189 26.0322 20.2189H26.3296V26.4171C26.3296 28.071 27.6696 29.4118 29.321 29.4118H29.3244C30.9758 29.4118 32.3123 28.071 32.3123 26.4171V30.7117C32.3123 32.3656 33.6523 33.7064 35.3072 33.7064C36.9585 33.7064 38.2985 32.3656 38.2985 30.7117C38.2985 32.3656 39.6385 33.7064 41.2899 33.7064C42.9413 33.7064 44.2813 32.3656 44.2813 30.7117V19.5641H65.7176V30.7117C65.7176 32.3656 67.0576 33.7064 68.709 33.7064C70.3639 33.7064 71.7004 32.3656 71.7004 30.7117C71.7004 32.3656 73.0403 33.7064 74.6952 33.7064C76.3466 33.7064 77.6866 32.3656 77.6866 30.7117V26.4171C77.6866 28.071 79.0266 29.4118 80.6779 29.4118C82.3293 29.4118 83.6693 28.071 83.6693 26.4171V20.2189H83.9667C84.7784 20.2189 85.4326 19.5627 85.4326 18.7534V14.9526C85.4326 14.1434 84.7784 13.4871 83.9667 13.4871ZM81.1328 12.8379C81.0418 13.5253 80.9193 14.2123 80.6779 14.8997C80.4365 14.2123 80.3141 13.5253 80.2231 12.8379C80.1391 12.1508 80.1007 11.4634 80.1007 10.776C80.1042 10.089 80.1427 9.40158 80.2266 8.71453C80.3176 8.02713 80.4365 7.33974 80.6779 6.65269C80.9193 7.33974 81.0383 8.02713 81.1293 8.71453C81.2132 9.40158 81.2517 10.089 81.2552 10.776C81.2552 11.4634 81.2132 12.1508 81.1328 12.8379ZM75.1466 8.71453C75.0556 9.40158 74.9366 10.089 74.6952 10.776C74.4503 10.089 74.3314 9.40158 74.2404 8.71453C74.1564 8.02713 74.1179 7.33974 74.1179 6.65269C74.1179 5.96529 74.1564 5.27824 74.2439 4.59084C74.3314 3.90379 74.4538 3.21639 74.6952 2.52899C74.9331 3.21639 75.0556 3.90379 75.1466 4.59084C75.2305 5.27824 75.269 5.96529 75.269 6.65269C75.2725 7.33974 75.2305 8.02713 75.1466 8.71453ZM69.1638 8.71453C69.0729 9.40158 68.9504 10.089 68.709 10.776C68.4676 10.089 68.3451 9.40158 68.2577 8.71453C68.1737 8.02713 68.1352 7.33974 68.1352 6.65269C68.1352 5.96529 68.1737 5.27824 68.2577 4.59084C68.3486 3.90379 68.4711 3.21639 68.709 2.52899C68.9504 3.21639 69.0729 3.90379 69.1603 4.59084C69.2443 5.27824 69.2863 5.96529 69.2863 6.65269C69.2863 7.33974 69.2478 8.02713 69.1638 8.71453ZM41.7447 8.71453C41.6538 9.40158 41.5313 10.089 41.2899 10.776C41.0485 10.089 40.926 9.40158 40.8351 8.71453C40.7511 8.02713 40.7126 7.33974 40.7126 6.65269C40.7161 5.96529 40.7546 5.27824 40.8386 4.59084C40.9296 3.90379 41.0485 3.21639 41.2899 2.52899C41.5313 3.21639 41.6503 3.90379 41.7412 4.59084C41.8252 5.27824 41.8637 5.96529 41.8672 6.65269C41.8672 7.33974 41.8252 8.02713 41.7447 8.71453ZM35.7585 8.71453C35.6675 9.40158 35.5486 10.089 35.3072 10.776C35.0658 10.089 34.9433 9.40158 34.8523 8.71453C34.7684 8.02713 34.7299 7.33974 34.7299 6.65269C34.7299 5.96529 34.7719 5.27824 34.8559 4.59084C34.9433 3.90379 35.0658 3.21639 35.3072 2.52899C35.5451 3.21639 35.6675 3.90379 35.7585 4.59084C35.8425 5.27824 35.881 5.96529 35.881 6.65269C35.8845 7.33974 35.8425 8.02713 35.7585 8.71453ZM29.7758 12.8379C29.6848 13.5253 29.5623 14.2123 29.3244 14.8997C29.0795 14.2123 28.9606 13.5253 28.8696 12.8379C28.7856 12.1508 28.7437 11.4634 28.7472 10.776C28.7472 10.089 28.7856 9.40158 28.8696 8.71453C28.9606 8.02713 29.083 7.33974 29.3244 6.65269C29.5623 7.33974 29.6848 8.02713 29.7758 8.71453C29.8563 9.40158 29.8982 10.089 29.8982 10.776C29.8982 11.4634 29.8598 12.1508 29.7758 12.8379Z" fill="white"/>
<path d="M59.928 14.5843C60.0585 14.433 60.1889 14.2864 60.3261 14.1417H59.5334C59.6672 14.2864 59.8009 14.433 59.928 14.5843Z" fill="white"/>
<path d="M90.8918 18.7605V14.1454H110V98.4745L55 125L0 98.4745V14.1454H19.1082V18.7605H4.60918V95.5762L55 119.878L105.391 95.5762V18.7605H90.8918Z" fill="white"/>
<path d="M26.1582 46.7435H21.4682V61.3989H15.5493V46.7435H10.8593V41.3618H26.1582V46.7435Z" fill="white"/>
<path fill-rule="evenodd" clip-rule="evenodd" d="M37.3114 54.9583H35.1382V61.3992H29.2189V41.3619H37.4256C42.9468 41.3619 45.6356 44.1386 45.6356 48.5464C45.6356 51.0949 44.6045 52.8399 42.7738 53.8423L47.0354 61.3992H40.5712L37.3114 54.9583ZM35.1382 50.3218H37.4256C38.77 50.3218 39.6576 49.864 39.6576 48.5464C39.6576 47.3449 38.969 46.7436 37.4256 46.7436H35.1382V50.3218Z" fill="white"/>
<path fill-rule="evenodd" clip-rule="evenodd" d="M55.3861 58.1937H61.5068L62.3934 61.3989H68.7994L62.108 41.3621H54.7849L48.0936 61.3989H54.4996L55.3861 58.1937ZM58.4465 47.1156L60.335 53.9571H56.5579L58.4465 47.1156Z" fill="white"/>
<path d="M77.2063 41.3623V61.3994H71.2857V41.3623H77.2063Z" fill="white"/>
<path d="M99.1407 61.3992V41.3624H93.2506V52.0395L86.4147 41.3624H81.123V61.3992H87.0453V50.7231L93.849 61.3992H99.1407Z" fill="white"/>
<path d="M30.6912 70.1565V90.1935H24.7704V82.7504H18.5365V90.1935H12.6156V70.1565H18.5365V77.4559H24.7704V70.1565H30.6912Z" fill="white"/>
<path fill-rule="evenodd" clip-rule="evenodd" d="M41.2445 86.9873H47.3645L48.2515 90.1938H54.6561L47.9635 70.1566H40.6421L33.9496 90.1938H40.3575L41.2445 86.9873ZM44.3028 75.9103L46.1895 82.7509H42.4162L44.3028 75.9103Z" fill="white"/>
<path fill-rule="evenodd" clip-rule="evenodd" d="M66.0105 83.7531H63.837V90.1935H57.9182V70.1566H66.124C71.6439 70.1566 74.3333 72.9331 74.3333 77.3412C74.3333 79.8885 73.3016 81.6347 71.4719 82.6371L75.7331 90.1935H69.2709L66.0105 83.7531ZM63.837 79.1154H66.124C67.4687 79.1154 68.356 78.6575 68.356 77.3412C68.356 76.1385 67.6682 75.5382 66.124 75.5382H63.837V79.1154Z" fill="white"/>
<path fill-rule="evenodd" clip-rule="evenodd" d="M86.6031 90.1935C93.2649 90.1935 97.3834 86.3855 97.3834 80.1744C97.3834 73.9633 93.2649 70.1564 86.6031 70.1564H78.9948V90.1935H86.6031ZM86.6031 75.5378C89.7465 75.5378 91.4646 77.3121 91.4646 80.1744C91.4646 83.0657 89.7465 84.8121 86.6031 84.8121H84.885V75.5378H86.6031Z" fill="white"/>
<path d="M55.0016 99.5731L56.6944 103.013L60.4884 103.564L57.745 106.242L58.3907 110.022L55.0016 108.238L51.6091 110.022L52.2548 106.242L49.5114 103.564L53.3053 103.013L55.0016 99.5731Z" fill="white"/>
<path d="M70.616 101.233L69.2901 98.5462L67.9677 101.233L65.0043 101.664L67.1489 103.756L66.6419 106.709L69.2901 105.315L71.9418 106.709L71.4348 103.756L73.5794 101.664L70.616 101.233Z" fill="white"/>
<path d="M40.708 98.5462L39.3817 101.233L36.4204 101.664L38.5626 103.756L38.0587 106.709L40.708 105.315L43.3572 106.709L42.8501 103.756L44.9955 101.664L42.031 101.233L40.708 98.5462Z" fill="white"/>
<path d="M57.8606 14.142C57.7274 14.2863 57.5942 14.433 57.4643 14.5846C57.3378 14.433 57.2047 14.2863 57.0681 14.142H57.8606Z" fill="white"/>
<path d="M62.3935 14.5845C62.5212 14.4328 62.6556 14.2862 62.79 14.1419H61.9971C62.1348 14.2862 62.2659 14.4328 62.3935 14.5845Z" fill="white"/>
<path d="M55.3967 14.1419C55.2608 14.2862 55.1282 14.4328 54.9989 14.5844C54.873 14.4328 54.7404 14.2862 54.6045 14.1419H55.3967Z" fill="white"/>
<path d="M48.0018 14.1423C47.8678 14.2866 47.7337 14.4332 47.6062 14.585C47.4787 14.4332 47.3447 14.2866 47.2074 14.1423H48.0018Z" fill="white"/>
<path d="M52.5353 14.5846C52.6639 14.433 52.7959 14.2864 52.9312 14.1421H52.1393C52.2746 14.2864 52.4066 14.433 52.5353 14.5846Z" fill="white"/>
<path d="M50.4673 14.1421C50.3327 14.2864 50.198 14.433 50.0699 14.5845C49.9418 14.433 49.8105 14.2864 49.6758 14.1421H50.4673Z" fill="white"/>
</svg>
