<svg width="20" height="20" viewBox="0 0 20 20" fill="none" xmlns="http://www.w3.org/2000/svg">
<mask id="mask0_2_315" style="mask-type:alpha" maskUnits="userSpaceOnUse" x="0" y="0" width="20" height="20">
<rect width="20" height="20" fill="#C4C4C4"/>
</mask>
<g mask="url(#mask0_2_315)">
<path d="M19.6223 1.24745C19.2812 0.961247 18.7453 0.920296 18.1913 1.14035H18.1904C17.6077 1.37165 1.69614 8.12347 1.0484 8.39932C0.930588 8.43982 -0.09834 8.81962 0.00764594 9.66562C0.10226 10.4284 0.929223 10.7443 1.03021 10.7807L5.07541 12.151C5.34379 13.0348 6.33314 16.2955 6.55194 16.9921C6.6884 17.4263 6.91083 17.9969 7.30066 18.1144C7.64273 18.2449 7.98298 18.1256 8.20314 17.9546L10.6763 15.6853L14.6687 18.7655L14.7638 18.8218C15.0349 18.9406 15.2946 19 15.5425 19C15.7341 19 15.9178 18.9645 16.0934 18.8934C16.6916 18.6503 16.9308 18.0865 16.9558 18.0226L19.938 2.6879C20.12 1.8689 19.8671 1.4522 19.6223 1.24745ZM8.643 12.6991L7.27837 16.2991L5.91375 11.7991L16.3759 4.14906L8.643 12.6991Z" fill="#95E82C"/>
</g>
</svg>
