<svg width="30" height="30" viewBox="0 0 30 30" fill="none" xmlns="http://www.w3.org/2000/svg">
<mask id="mask0_2_229" style="mask-type:alpha" maskUnits="userSpaceOnUse" x="0" y="0" width="30" height="30">
<rect width="30" height="30" fill="#C4C4C4"/>
</mask>
<g mask="url(#mask0_2_229)">
<path d="M29.4335 1.87117C28.9218 1.44187 28.118 1.38044 27.2869 1.71052H27.2856C26.4115 2.05747 2.54421 12.1852 1.5726 12.599C1.39588 12.6597 -0.14751 13.2294 0.0114689 14.4984C0.15339 15.6426 1.39384 16.1164 1.54531 16.1711L7.61312 18.2265C8.01568 19.5522 9.49971 24.4432 9.82791 25.4881C10.0326 26.1395 10.3663 26.9954 10.951 27.1716C11.4641 27.3673 11.9745 27.1885 12.3047 26.932L16.0144 23.5279L22.0031 28.1483L22.1457 28.2327C22.5524 28.4109 22.942 28.5 23.3138 28.5C23.6011 28.5 23.8767 28.4467 24.1401 28.34C25.0373 27.9755 25.3962 27.1297 25.4338 27.0339L29.907 4.03185C30.1799 2.80335 29.8006 2.1783 29.4335 1.87117ZM12.9645 19.0486L10.9176 24.4486L8.87062 17.6986L24.5638 6.22358L12.9645 19.0486Z" fill="black"/>
</g>
</svg>
