<svg width="30" height="30" viewBox="0 0 30 30" fill="none" xmlns="http://www.w3.org/2000/svg">
<mask id="mask0_2_225" style="mask-type:alpha" maskUnits="userSpaceOnUse" x="0" y="0" width="30" height="30">
<rect width="30" height="30" fill="#C4C4C4"/>
</mask>
<g mask="url(#mask0_2_225)">
<path fill-rule="evenodd" clip-rule="evenodd" d="M29.3116 7.21884C29.5201 6.51626 29.3116 6 28.3191 6H25.0371C24.2026 6 23.8178 6.44597 23.6092 6.93775C23.6092 6.93775 21.9402 11.0478 19.5758 13.7175C18.8109 14.4904 18.4631 14.7362 18.0459 14.7362C17.8373 14.7362 17.5353 14.4904 17.5353 13.7878V7.21884C17.5353 6.37575 17.2931 6 16.5976 6H11.4402C10.9187 6 10.605 6.3913 10.605 6.76215C10.605 7.56139 11.7872 7.7457 11.909 9.99396V14.8768C11.909 15.9474 11.7177 16.1415 11.3004 16.1415C10.1878 16.1415 7.48134 12.0131 5.87616 7.28907C5.56159 6.3709 5.24607 6 4.40728 6H1.12527C0.187553 6 0 6.44597 0 6.93775C0 7.81599 1.11267 12.1719 5.1808 17.933C7.89286 21.8673 11.714 24 15.191 24C17.2772 24 17.5353 23.5263 17.5353 22.7104V19.7368C17.5353 18.7895 17.733 18.6004 18.3936 18.6004C18.8804 18.6004 19.7149 18.8463 21.6621 20.7432C23.8874 22.9914 24.2542 24 25.5059 24H28.7879C29.7257 24 30.1945 23.5263 29.924 22.5915C29.6281 21.6599 28.5656 20.3081 27.1558 18.7058C26.3908 17.7925 25.2434 16.8089 24.8957 16.317C24.4089 15.6848 24.548 15.4037 24.8957 14.8417C24.8957 14.8417 28.8943 9.15086 29.3116 7.21884Z" fill="black"/>
</g>
</svg>
